<svg width="40" height="40" viewBox="0 0 40 40" fill="none" xmlns="http://www.w3.org/2000/svg">
<path d="M24.5 10.5C24.1946 10.8115 24.0236 11.2304 24.0236 11.6666C24.0236 12.1029 24.1946 12.5218 24.5 12.8333L27.1667 15.5C27.4782 15.8054 27.8971 15.9764 28.3333 15.9764C28.7696 15.9764 29.1885 15.8054 29.5 15.5L35.7833 9.21664C36.6214 11.0686 36.8751 13.132 36.5108 15.1319C36.1464 17.1317 35.1812 18.9731 33.7438 20.4104C32.3064 21.8478 30.4651 22.813 28.4652 23.1774C26.4654 23.5418 24.402 23.288 22.55 22.45L11.0333 33.9666C10.3703 34.6297 9.47102 35.0022 8.53334 35.0022C7.59565 35.0022 6.69638 34.6297 6.03334 33.9666C5.3703 33.3036 4.9978 32.4043 4.9978 31.4666C4.9978 30.529 5.3703 29.6297 6.03334 28.9666L17.55 17.45C16.7119 15.598 16.4582 13.5346 16.8226 11.5347C17.187 9.53488 18.1521 7.69357 19.5895 6.25618C21.0269 4.81879 22.8682 3.85359 24.8681 3.48921C26.8679 3.12484 28.9314 3.37858 30.7833 4.21664L24.5167 10.4833L24.5 10.5Z" stroke="white" stroke-width="2" stroke-linecap="round" stroke-linejoin="round"/>
</svg>
